<svg xmlns="http://www.w3.org/2000/svg" xmlns:xlink="http://www.w3.org/1999/xlink" width="500" zoomAndPan="magnify" viewBox="0 0 375 374.999991" height="500" preserveAspectRatio="xMidYMid meet" version="1.0"><defs><g/><clipPath id="a7e665b5cb"><path d="M 0.324219 0 L 375 0 L 375 375 L 0.324219 375 Z M 0.324219 0 " clip-rule="nonzero"/></clipPath><clipPath id="5efcb0d6da"><path d="M 187.824219 0 C 84.269531 0 0.324219 83.945312 0.324219 187.5 C 0.324219 291.054688 84.269531 375 187.824219 375 C 291.378906 375 375.324219 291.054688 375.324219 187.5 C 375.324219 83.945312 291.378906 0 187.824219 0 Z M 187.824219 0 " clip-rule="nonzero"/></clipPath></defs><g clip-path="url(#a7e665b5cb)"><g clip-path="url(#5efcb0d6da)"><path fill="#000000" d="M 0.324219 0 L 375.324219 0 L 375.324219 375 L 0.324219 375 Z M 0.324219 0 " fill-opacity="1" fill-rule="nonzero"/></g></g><g fill="#a5b4fc" fill-opacity="1"><g transform="translate(73.636509, 287.908998)"><g><path d="M 179.296875 -48.328125 L 179.296875 -111.9375 L 128.203125 -9.515625 C 127.867188 -8.515625 127.117188 -8.015625 125.953125 -8.015625 L 95.15625 -8.015625 C 93.820312 -8.015625 92.988281 -8.515625 92.65625 -9.515625 L 38.3125 -114.6875 L 38.3125 -2.25 C 38.3125 -0.75 37.394531 0 35.5625 0 L 2.5 0 C 0.832031 0 0 -0.75 0 -2.25 L 0 -198.078125 C 0 -199.578125 0.832031 -200.328125 2.5 -200.328125 L 36.0625 -200.328125 C 37.394531 -200.328125 38.226562 -199.828125 38.5625 -198.828125 L 110.421875 -52.078125 L 178.796875 -198.828125 C 179.460938 -199.828125 180.378906 -200.328125 181.546875 -200.328125 L 214.59375 -200.328125 C 216.4375 -200.328125 217.359375 -199.578125 217.359375 -198.078125 L 217.359375 -48.328125 Z M 179.296875 -48.328125 "/></g></g></g></svg>